<?xml version="1.0" encoding="UTF-8"?>
<svg id="Layer_1" data-name="Layer 1" xmlns="http://www.w3.org/2000/svg" viewBox="0 0 1024 1024">
  <rect x="17.78" y="17.78" width="988.45" height="988.45" rx="160" ry="160" style="fill: #f4f1de;"/>
  <path d="M435.01,329.63l-257.5-12.14-.03,450.12,25.66-.58c6.23-.14,11.94,1.05,18.17.23,6.11-.8,12.63-.78,18.76-.09,6.5.72,12.54-.26,19-.19,4.28.05,8.24.59,12.66.36,3.82-.2,7.95-.12,11.79-.17l17.1-.23,10.04.21,6.29-.11c2.83-.05,5.4-.12,8.2-.08l26.53.37,74.11.25c5.77.02,10.5,2.78,15.21,5.5,13.3,7.68,19.73,24.57,44.65,23.51,32.63,3.22,38.06-15.34,52.34-23.52,4.7-2.69,9.43-5.48,15.21-5.49l74.1-.23,13.38-.34,32.08.02,14.47.04,70.3.16,18.35-.12,25.64.07-.05-450.41h-268.52l-49.1,26.11-48.81-13.25" style="fill: #1b9e77;"/>
  <path d="M464.41,326.66c-37.76-37.9-83.29-56.11-133.88-67.74-26.62-6.12-53.29-8.84-80.43-9.93l-14.63-.49-27.66-1.65-.09,409.95,17.15-1.1h28.97c35.26,1.75,69.69,7.09,103.77,16.57,13.53,3.76,26.56,7.15,38.39,14.55l28.73,17.96,49.93,30.17-1.64-18.37c-.27-3.02-.25-5.5-.2-8.62l.11-6.32-.02-86.72.08-31.61-.04-35.86-.09-31.47v-32.23s.02-105.6.02-105.6l-.66-20.23-.43-15.06c-.18-6.33-2.45-11.25-7.39-16.21Z" style="fill: #f2bf27;"/>
  <g>
    <rect x="469.96" y="246.85" width="376.57" height="521.08" rx="12" ry="12" style="fill: #1b9e77;"/>
    <polyline points="498.31 718.7 500.48 270.23 819.14 271.76 819.16 717.83 502.54 719.29" style="fill: #f2bf27;"/>
    <line x1="630.41" y1="742.68" x2="687.06" y2="745.78" style="fill: none; stroke: #f2bf27; stroke-linecap: round; stroke-linejoin: round; stroke-width: 19.55px;"/>
  </g>
  <g id="Generative_Object" data-name="Generative Object">
    <path d="M755.86,392.2c.9-.11,1.87.54,2.95.03l5.81.87c15.37,3.06,22.48,16.63,22.57,31.48l.06,9.98-.93,14.48-.47,5.48c-.29,3.35-.29,6.54-.21,9.95.23,10.36,1.76,20.12,10.28,26.51l4.26,3.78-5.98,5.15c-4.06,3.49-6.19,8.21-7.31,13.41-.72,3.38-1.38,6.82-1.3,10.25l.22,10.02.52,6.83.97,16.19c1.05,17.49-3.55,35.72-22.33,39.66l-9.07,1.53" style="fill: none; stroke: #1b9e77; stroke-linecap: round; stroke-linejoin: round; stroke-width: 12px;"/>
    <path d="M654.09,458.79c20.23-1.84,37.5,13.19,39.2,32.8,1.71,19.76-12.94,37.22-32.66,39.01-19.72,1.8-37.29-12.72-39.17-32.47-1.87-19.6,12.39-37.51,32.63-39.35Z" style="fill: none; stroke: #1b9e77; stroke-linecap: round; stroke-linejoin: round; stroke-width: 12px;"/>
    <path d="M692.64,437.38l7.34-5.74c1.68-1.31,3.33-2.5,5.65-2.8,1.67-.22,4.31.67,5.64,2l9.87,9.91c2.71,2.72,2.89,6.7.63,9.66l-7.03,9.22c-.94,1.24-1.29,2.43-.47,3.87,2.78,4.87,4.47,10.02,5.74,15.48,1.53.61,2.99.19,4.41.36l7.87.92c2.77.32,5.15,1.21,6.85,3.57,1.38,1.92,1.39,4.46,1.37,7.06l-.08,10.92c-.6,4.07-3.26,6.67-7.13,7.19l-10.3,1.38c-2.17.29-3.2,1.08-3.76,3.25-1.12,4.32-2.89,8.41-4.97,12.33-.72,1.35-.65,2.36.25,3.54l7.51,9.91c2.83,3.73.64,7.94-2.39,10.95l-5.99,5.97c-3.23,3.22-7.44,5.67-11.63,2.92l-10.74-8.31-4.8,1.8c-3.43,1.29-6.64,2.96-10.23,3.92-1.81.48-2.93,1.52-3.19,3.39l-1.47,10.68c-.47,3.39-2.89,7.05-6.83,7.04l-14.88-.05c-3.87-.01-6.34-3.61-6.8-7l-1.45-10.68c-.25-1.87-1.36-2.9-3.19-3.39-3.69-.98-7.01-2.61-10.48-4.03l-4.48-1.84-10.51,8.28c-3.84,3.03-9.18,1.18-11.79-2.86-2.15-1.95-4.35-3.73-6.01-6.16-4.29-2.82-4.68-8.06-1.61-12.02l6.62-8.53c.89-1.15.91-2.25.23-3.53-2.09-3.94-3.85-8.01-4.97-12.34-.56-2.16-1.59-2.95-3.76-3.25l-10.29-1.38c-3.9-.52-6.52-3.13-7.12-7.17l-.15-11.2c-.66-5.28,2.43-10.03,7.95-10.32l8.19-.98c1.4-.17,2.83.31,4.34-.26,1.36-5.47,3.01-10.67,5.82-15.57.83-1.44.47-2.64-.47-3.87l-7.03-9.24c-2.24-2.95-2.08-6.92.63-9.64l9.87-9.91c2.37-2.38,6.66-2.77,9.87-.27l8.59,6.69c1.59,1.24,3.18,1.22,4.89.26,3.69-2.07,7.59-3.72,11.67-4.88,1.99-.57,2.89-1.48,3.18-3.57l1.45-10.65c.48-3.53,3.33-6.71,7.11-6.74l13.63-.1c4.07-.03,7.24,2.96,7.77,6.84l1.46,10.65c.29,2.1,1.21,3.02,3.18,3.58,4.1,1.16,7.97,2.82,11.68,4.88,1.55.86,3.09,1.13,4.71-.14Z" style="fill: none; stroke: #1b9e77; stroke-linecap: round; stroke-linejoin: round; stroke-width: 12px;"/>
    <path d="M560.91,391.71c-3.44.52-6.88.84-10.45,1.72-16.59,4.14-21.79,19.65-21.34,35.62l.25,8.97,1.43,22.64c.54,8.53-.94,20.98-6.82,27.18l-7.68,6.85,4.72,4.2c3.56,3.17,6.36,6.68,7.75,11.33,1.73,5.83,2.46,11.72,2.09,17.89l-1.79,30.19c-.97,16.41,4.14,33.32,21.41,37.72l10.43,1.73" style="fill: none; stroke: #1b9e77; stroke-linecap: round; stroke-linejoin: round; stroke-width: 12px;"/>
  </g>
</svg>